<mxfile host="app.diagrams.net" modified="2024-02-02T10:38:34.296Z" agent="Mozilla/5.0 (Windows NT 10.0; Win64; x64; rv:122.0) Gecko/20100101 Firefox/122.0" version="23.1.0" etag="iKmPMJe58BEVC1Bbh8cJ" type="github">
  <diagram name="Pagina-1" id="60Yuq9CszL3VLg8wKSDE">
    <mxGraphModel>
      <root>
        <mxCell id="0" />
        <mxCell id="1" parent="0" />
      </root>
    </mxGraphModel>
  </diagram>
</mxfile>
